<svg xmlns="http://www.w3.org/2000/svg" version="1.1" xmlns:xlink="http://www.w3.org/1999/xlink" xmlns:svgjs="http://svgjs.dev/svgjs" width="1440" height="560" preserveAspectRatio="none" viewBox="0 0 1440 560"><g mask="url(&quot;#SvgjsMask1014&quot;)" fill="none"><path d="M-95.86 349.28L-95.86 349.28" stroke="rgba(19, 46, 101, 0.1)" stroke-width="1.5"></path><path d="M-95.86 349.28L-42.72 489.09" stroke="rgba(19, 46, 101, 0.1)" stroke-width="1.5"></path><path d="M-95.86 349.28L70.47 364.4" stroke="rgba(19, 46, 101, 0.1)" stroke-width="1.5"></path><path d="M-95.86 349.28L92.13 557.69" stroke="rgba(19, 46, 101, 0.1)" stroke-width="1.5"></path><path d="M-95.86 349.28L-72.76 646.12" stroke="rgba(19, 46, 101, 0.1)" stroke-width="1.5"></path><path d="M-95.86 349.28L224.17 377.28" stroke="rgba(19, 46, 101, 0.1)" stroke-width="1.5"></path><path d="M-95.86 349.28L74.36 643.26" stroke="rgba(19, 46, 101, 0.1)" stroke-width="1.5"></path><path d="M-42.72 489.09L-42.72 489.09" stroke="rgba(19, 46, 101, 0.1)" stroke-width="1.5"></path><path d="M-42.72 489.09L92.13 557.69" stroke="rgba(19, 46, 101, 0.1)" stroke-width="1.5"></path><path d="M-72.76 646.12L-72.76 646.12" stroke="rgba(19, 46, 101, 0.1)" stroke-width="1.5"></path><path d="M-72.76 646.12L74.36 643.26" stroke="rgba(19, 46, 101, 0.1)" stroke-width="1.5"></path><path d="M-72.76 646.12L-42.72 489.09" stroke="rgba(19, 46, 101, 0.1)" stroke-width="1.5"></path><path d="M-72.76 646.12L92.13 557.69" stroke="rgba(19, 46, 101, 0.1)" stroke-width="1.5"></path><path d="M-72.76 646.12L210.31 697.62" stroke="rgba(19, 46, 101, 0.1)" stroke-width="1.5"></path><path d="M70.47 364.4L70.47 364.4" stroke="rgba(19, 46, 101, 0.1)" stroke-width="1.5"></path><path d="M70.47 364.4L224.17 377.28" stroke="rgba(19, 46, 101, 0.1)" stroke-width="1.5"></path><path d="M70.47 364.4L-42.72 489.09" stroke="rgba(19, 46, 101, 0.1)" stroke-width="1.5"></path><path d="M70.47 364.4L92.13 557.69" stroke="rgba(19, 46, 101, 0.1)" stroke-width="1.5"></path><path d="M70.47 364.4L254.07 501.79" stroke="rgba(19, 46, 101, 0.1)" stroke-width="1.5"></path><path d="M92.13 557.69L92.13 557.69" stroke="rgba(19, 46, 101, 0.1)" stroke-width="1.5"></path><path d="M92.13 557.69L74.36 643.26" stroke="rgba(19, 46, 101, 0.1)" stroke-width="1.5"></path><path d="M74.36 643.26L74.36 643.26" stroke="rgba(19, 46, 101, 0.1)" stroke-width="1.5"></path><path d="M74.36 643.26L210.31 697.62" stroke="rgba(19, 46, 101, 0.1)" stroke-width="1.5"></path><path d="M74.36 643.26L-42.72 489.09" stroke="rgba(19, 46, 101, 0.1)" stroke-width="1.5"></path><path d="M74.36 643.26L254.07 501.79" stroke="rgba(19, 46, 101, 0.1)" stroke-width="1.5"></path><path d="M224.17 377.28L224.17 377.28" stroke="rgba(19, 46, 101, 0.1)" stroke-width="1.5"></path><path d="M224.17 377.28L254.07 501.79" stroke="rgba(19, 46, 101, 0.1)" stroke-width="1.5"></path><path d="M224.17 377.28L392.76 379.39" stroke="rgba(19, 46, 101, 0.1)" stroke-width="1.5"></path><path d="M254.07 501.79L254.07 501.79" stroke="rgba(19, 46, 101, 0.1)" stroke-width="1.5"></path><path d="M210.31 697.62L210.31 697.62" stroke="rgba(19, 46, 101, 0.1)" stroke-width="1.5"></path><path d="M210.31 697.62L92.13 557.69" stroke="rgba(19, 46, 101, 0.1)" stroke-width="1.5"></path><path d="M392.76 379.39L392.76 379.39" stroke="rgba(19, 46, 101, 0.1)" stroke-width="1.5"></path><path d="M392.76 379.39L530.53 348.82" stroke="rgba(19, 46, 101, 0.1)" stroke-width="1.5"></path><path d="M530.53 348.82L530.53 348.82" stroke="rgba(19, 46, 101, 0.1)" stroke-width="1.5"></path><path d="M530.53 348.82L645.98 381.85" stroke="rgba(19, 46, 101, 0.1)" stroke-width="1.5"></path><path d="M530.53 348.82L651.88 233.88" stroke="rgba(19, 46, 101, 0.1)" stroke-width="1.5"></path><path d="M502.09 676.04L502.09 676.04" stroke="rgba(19, 46, 101, 0.1)" stroke-width="1.5"></path><path d="M502.09 676.04L711.14 712.36" stroke="rgba(19, 46, 101, 0.1)" stroke-width="1.5"></path><path d="M502.09 676.04L667.91 492.89" stroke="rgba(19, 46, 101, 0.1)" stroke-width="1.5"></path><path d="M502.09 676.04L210.31 697.62" stroke="rgba(19, 46, 101, 0.1)" stroke-width="1.5"></path><path d="M502.09 676.04L254.07 501.79" stroke="rgba(19, 46, 101, 0.1)" stroke-width="1.5"></path><path d="M502.09 676.04L392.76 379.39" stroke="rgba(19, 46, 101, 0.1)" stroke-width="1.5"></path><path d="M502.09 676.04L817.96 702.51" stroke="rgba(19, 46, 101, 0.1)" stroke-width="1.5"></path><path d="M651.88 233.88L651.88 233.88" stroke="rgba(19, 46, 101, 0.1)" stroke-width="1.5"></path><path d="M651.88 233.88L645.98 381.85" stroke="rgba(19, 46, 101, 0.1)" stroke-width="1.5"></path><path d="M651.88 233.88L813 189.78" stroke="rgba(19, 46, 101, 0.1)" stroke-width="1.5"></path><path d="M645.98 381.85L645.98 381.85" stroke="rgba(19, 46, 101, 0.1)" stroke-width="1.5"></path><path d="M645.98 381.85L667.91 492.89" stroke="rgba(19, 46, 101, 0.1)" stroke-width="1.5"></path><path d="M645.98 381.85L836.52 350.21" stroke="rgba(19, 46, 101, 0.1)" stroke-width="1.5"></path><path d="M645.98 381.85L817.29 534.71" stroke="rgba(19, 46, 101, 0.1)" stroke-width="1.5"></path><path d="M667.91 492.89L667.91 492.89" stroke="rgba(19, 46, 101, 0.1)" stroke-width="1.5"></path><path d="M667.91 492.89L817.29 534.71" stroke="rgba(19, 46, 101, 0.1)" stroke-width="1.5"></path><path d="M711.14 712.36L711.14 712.36" stroke="rgba(19, 46, 101, 0.1)" stroke-width="1.5"></path><path d="M711.14 712.36L817.96 702.51" stroke="rgba(19, 46, 101, 0.1)" stroke-width="1.5"></path><path d="M711.14 712.36L817.29 534.71" stroke="rgba(19, 46, 101, 0.1)" stroke-width="1.5"></path><path d="M835.44 90.8L835.44 90.8" stroke="rgba(19, 46, 101, 0.1)" stroke-width="1.5"></path><path d="M835.44 90.8L813 189.78" stroke="rgba(19, 46, 101, 0.1)" stroke-width="1.5"></path><path d="M835.44 90.8L939.77 58.39" stroke="rgba(19, 46, 101, 0.1)" stroke-width="1.5"></path><path d="M835.44 90.8L986.44 214.48" stroke="rgba(19, 46, 101, 0.1)" stroke-width="1.5"></path><path d="M835.44 90.8L986.81 -65.27" stroke="rgba(19, 46, 101, 0.1)" stroke-width="1.5"></path><path d="M835.44 90.8L651.88 233.88" stroke="rgba(19, 46, 101, 0.1)" stroke-width="1.5"></path><path d="M835.44 90.8L836.52 350.21" stroke="rgba(19, 46, 101, 0.1)" stroke-width="1.5"></path><path d="M813 189.78L813 189.78" stroke="rgba(19, 46, 101, 0.1)" stroke-width="1.5"></path><path d="M813 189.78L836.52 350.21" stroke="rgba(19, 46, 101, 0.1)" stroke-width="1.5"></path><path d="M813 189.78L986.44 214.48" stroke="rgba(19, 46, 101, 0.1)" stroke-width="1.5"></path><path d="M813 189.78L939.77 58.39" stroke="rgba(19, 46, 101, 0.1)" stroke-width="1.5"></path><path d="M836.52 350.21L836.52 350.21" stroke="rgba(19, 46, 101, 0.1)" stroke-width="1.5"></path><path d="M836.52 350.21L970.04 350.3" stroke="rgba(19, 46, 101, 0.1)" stroke-width="1.5"></path><path d="M817.29 534.71L817.29 534.71" stroke="rgba(19, 46, 101, 0.1)" stroke-width="1.5"></path><path d="M817.29 534.71L817.96 702.51" stroke="rgba(19, 46, 101, 0.1)" stroke-width="1.5"></path><path d="M817.29 534.71L947.54 654.69" stroke="rgba(19, 46, 101, 0.1)" stroke-width="1.5"></path><path d="M817.29 534.71L998.6 513.47" stroke="rgba(19, 46, 101, 0.1)" stroke-width="1.5"></path><path d="M817.29 534.71L836.52 350.21" stroke="rgba(19, 46, 101, 0.1)" stroke-width="1.5"></path><path d="M817.96 702.51L817.96 702.51" stroke="rgba(19, 46, 101, 0.1)" stroke-width="1.5"></path><path d="M817.96 702.51L947.54 654.69" stroke="rgba(19, 46, 101, 0.1)" stroke-width="1.5"></path><path d="M817.96 702.51L667.91 492.89" stroke="rgba(19, 46, 101, 0.1)" stroke-width="1.5"></path><path d="M817.96 702.51L998.6 513.47" stroke="rgba(19, 46, 101, 0.1)" stroke-width="1.5"></path><path d="M817.96 702.51L1128.88 675.95" stroke="rgba(19, 46, 101, 0.1)" stroke-width="1.5"></path><path d="M986.81 -65.27L986.81 -65.27" stroke="rgba(19, 46, 101, 0.1)" stroke-width="1.5"></path><path d="M986.81 -65.27L939.77 58.39" stroke="rgba(19, 46, 101, 0.1)" stroke-width="1.5"></path><path d="M986.81 -65.27L1147.87 -92.41" stroke="rgba(19, 46, 101, 0.1)" stroke-width="1.5"></path><path d="M986.81 -65.27L1142.26 53.51" stroke="rgba(19, 46, 101, 0.1)" stroke-width="1.5"></path><path d="M939.77 58.39L939.77 58.39" stroke="rgba(19, 46, 101, 0.1)" stroke-width="1.5"></path><path d="M986.44 214.48L986.44 214.48" stroke="rgba(19, 46, 101, 0.1)" stroke-width="1.5"></path><path d="M986.44 214.48L1101.87 241.56" stroke="rgba(19, 46, 101, 0.1)" stroke-width="1.5"></path><path d="M986.44 214.48L970.04 350.3" stroke="rgba(19, 46, 101, 0.1)" stroke-width="1.5"></path><path d="M986.44 214.48L939.77 58.39" stroke="rgba(19, 46, 101, 0.1)" stroke-width="1.5"></path><path d="M986.44 214.48L836.52 350.21" stroke="rgba(19, 46, 101, 0.1)" stroke-width="1.5"></path><path d="M970.04 350.3L970.04 350.3" stroke="rgba(19, 46, 101, 0.1)" stroke-width="1.5"></path><path d="M970.04 350.3L1114.16 372.84" stroke="rgba(19, 46, 101, 0.1)" stroke-width="1.5"></path><path d="M998.6 513.47L998.6 513.47" stroke="rgba(19, 46, 101, 0.1)" stroke-width="1.5"></path><path d="M998.6 513.47L947.54 654.69" stroke="rgba(19, 46, 101, 0.1)" stroke-width="1.5"></path><path d="M998.6 513.47L970.04 350.3" stroke="rgba(19, 46, 101, 0.1)" stroke-width="1.5"></path><path d="M947.54 654.69L947.54 654.69" stroke="rgba(19, 46, 101, 0.1)" stroke-width="1.5"></path><path d="M947.54 654.69L1128.88 675.95" stroke="rgba(19, 46, 101, 0.1)" stroke-width="1.5"></path><path d="M947.54 654.69L711.14 712.36" stroke="rgba(19, 46, 101, 0.1)" stroke-width="1.5"></path><path d="M1147.87 -92.41L1147.87 -92.41" stroke="rgba(19, 46, 101, 0.1)" stroke-width="1.5"></path><path d="M1147.87 -92.41L1243.98 -64.07" stroke="rgba(19, 46, 101, 0.1)" stroke-width="1.5"></path><path d="M1147.87 -92.41L1142.26 53.51" stroke="rgba(19, 46, 101, 0.1)" stroke-width="1.5"></path><path d="M1147.87 -92.41L1249.24 86.54" stroke="rgba(19, 46, 101, 0.1)" stroke-width="1.5"></path><path d="M1147.87 -92.41L939.77 58.39" stroke="rgba(19, 46, 101, 0.1)" stroke-width="1.5"></path><path d="M1142.26 53.51L1142.26 53.51" stroke="rgba(19, 46, 101, 0.1)" stroke-width="1.5"></path><path d="M1142.26 53.51L1249.24 86.54" stroke="rgba(19, 46, 101, 0.1)" stroke-width="1.5"></path><path d="M1142.26 53.51L1243.98 -64.07" stroke="rgba(19, 46, 101, 0.1)" stroke-width="1.5"></path><path d="M1101.87 241.56L1101.87 241.56" stroke="rgba(19, 46, 101, 0.1)" stroke-width="1.5"></path><path d="M1101.87 241.56L1114.16 372.84" stroke="rgba(19, 46, 101, 0.1)" stroke-width="1.5"></path><path d="M1114.16 372.84L1114.16 372.84" stroke="rgba(19, 46, 101, 0.1)" stroke-width="1.5"></path><path d="M1114.16 372.84L1283.31 381.06" stroke="rgba(19, 46, 101, 0.1)" stroke-width="1.5"></path><path d="M1114.16 372.84L1241.88 496.95" stroke="rgba(19, 46, 101, 0.1)" stroke-width="1.5"></path><path d="M1114.16 372.84L998.6 513.47" stroke="rgba(19, 46, 101, 0.1)" stroke-width="1.5"></path><path d="M1114.16 372.84L986.44 214.48" stroke="rgba(19, 46, 101, 0.1)" stroke-width="1.5"></path><path d="M1128.88 675.95L1128.88 675.95" stroke="rgba(19, 46, 101, 0.1)" stroke-width="1.5"></path><path d="M1128.88 675.95L1243.86 651.84" stroke="rgba(19, 46, 101, 0.1)" stroke-width="1.5"></path><path d="M1128.88 675.95L998.6 513.47" stroke="rgba(19, 46, 101, 0.1)" stroke-width="1.5"></path><path d="M1128.88 675.95L1241.88 496.95" stroke="rgba(19, 46, 101, 0.1)" stroke-width="1.5"></path><path d="M1128.88 675.95L1408.06 685.14" stroke="rgba(19, 46, 101, 0.1)" stroke-width="1.5"></path><path d="M1243.98 -64.07L1243.98 -64.07" stroke="rgba(19, 46, 101, 0.1)" stroke-width="1.5"></path><path d="M1243.98 -64.07L1249.24 86.54" stroke="rgba(19, 46, 101, 0.1)" stroke-width="1.5"></path><path d="M1243.98 -64.07L1455.72 -108.52" stroke="rgba(19, 46, 101, 0.1)" stroke-width="1.5"></path><path d="M1243.98 -64.07L1438.84 48.31" stroke="rgba(19, 46, 101, 0.1)" stroke-width="1.5"></path><path d="M1249.24 86.54L1249.24 86.54" stroke="rgba(19, 46, 101, 0.1)" stroke-width="1.5"></path><path d="M1249.24 86.54L1264.21 221.76" stroke="rgba(19, 46, 101, 0.1)" stroke-width="1.5"></path><path d="M1264.21 221.76L1264.21 221.76" stroke="rgba(19, 46, 101, 0.1)" stroke-width="1.5"></path><path d="M1264.21 221.76L1412.18 207.51" stroke="rgba(19, 46, 101, 0.1)" stroke-width="1.5"></path><path d="M1283.31 381.06L1283.31 381.06" stroke="rgba(19, 46, 101, 0.1)" stroke-width="1.5"></path><path d="M1283.31 381.06L1241.88 496.95" stroke="rgba(19, 46, 101, 0.1)" stroke-width="1.5"></path><path d="M1283.31 381.06L1436.79 398.78" stroke="rgba(19, 46, 101, 0.1)" stroke-width="1.5"></path><path d="M1283.31 381.06L1264.21 221.76" stroke="rgba(19, 46, 101, 0.1)" stroke-width="1.5"></path><path d="M1283.31 381.06L1389.21 561.2" stroke="rgba(19, 46, 101, 0.1)" stroke-width="1.5"></path><path d="M1241.88 496.95L1241.88 496.95" stroke="rgba(19, 46, 101, 0.1)" stroke-width="1.5"></path><path d="M1241.88 496.95L1243.86 651.84" stroke="rgba(19, 46, 101, 0.1)" stroke-width="1.5"></path><path d="M1241.88 496.95L1389.21 561.2" stroke="rgba(19, 46, 101, 0.1)" stroke-width="1.5"></path><path d="M1243.86 651.84L1243.86 651.84" stroke="rgba(19, 46, 101, 0.1)" stroke-width="1.5"></path><path d="M1243.86 651.84L1408.06 685.14" stroke="rgba(19, 46, 101, 0.1)" stroke-width="1.5"></path><path d="M1243.86 651.84L1389.21 561.2" stroke="rgba(19, 46, 101, 0.1)" stroke-width="1.5"></path><path d="M1455.72 -108.52L1455.72 -108.52" stroke="rgba(19, 46, 101, 0.1)" stroke-width="1.5"></path><path d="M1455.72 -108.52L1550.18 -100.86" stroke="rgba(19, 46, 101, 0.1)" stroke-width="1.5"></path><path d="M1455.72 -108.52L1438.84 48.31" stroke="rgba(19, 46, 101, 0.1)" stroke-width="1.5"></path><path d="M1455.72 -108.52L1569.44 107.55" stroke="rgba(19, 46, 101, 0.1)" stroke-width="1.5"></path><path d="M1438.84 48.31L1438.84 48.31" stroke="rgba(19, 46, 101, 0.1)" stroke-width="1.5"></path><path d="M1438.84 48.31L1569.44 107.55" stroke="rgba(19, 46, 101, 0.1)" stroke-width="1.5"></path><path d="M1412.18 207.51L1412.18 207.51" stroke="rgba(19, 46, 101, 0.1)" stroke-width="1.5"></path><path d="M1412.18 207.51L1564.95 225.31" stroke="rgba(19, 46, 101, 0.1)" stroke-width="1.5"></path><path d="M1412.18 207.51L1438.84 48.31" stroke="rgba(19, 46, 101, 0.1)" stroke-width="1.5"></path><path d="M1412.18 207.51L1569.44 107.55" stroke="rgba(19, 46, 101, 0.1)" stroke-width="1.5"></path><path d="M1412.18 207.51L1436.79 398.78" stroke="rgba(19, 46, 101, 0.1)" stroke-width="1.5"></path><path d="M1412.18 207.51L1249.24 86.54" stroke="rgba(19, 46, 101, 0.1)" stroke-width="1.5"></path><path d="M1436.79 398.78L1436.79 398.78" stroke="rgba(19, 46, 101, 0.1)" stroke-width="1.5"></path><path d="M1436.79 398.78L1549.27 390.07" stroke="rgba(19, 46, 101, 0.1)" stroke-width="1.5"></path><path d="M1389.21 561.2L1389.21 561.2" stroke="rgba(19, 46, 101, 0.1)" stroke-width="1.5"></path><path d="M1389.21 561.2L1408.06 685.14" stroke="rgba(19, 46, 101, 0.1)" stroke-width="1.5"></path><path d="M1389.21 561.2L1436.79 398.78" stroke="rgba(19, 46, 101, 0.1)" stroke-width="1.5"></path><path d="M1389.21 561.2L1583.27 494.48" stroke="rgba(19, 46, 101, 0.1)" stroke-width="1.5"></path><path d="M1408.06 685.14L1408.06 685.14" stroke="rgba(19, 46, 101, 0.1)" stroke-width="1.5"></path><path d="M1408.06 685.14L1612.24 649.3" stroke="rgba(19, 46, 101, 0.1)" stroke-width="1.5"></path><path d="M1408.06 685.14L1241.88 496.95" stroke="rgba(19, 46, 101, 0.1)" stroke-width="1.5"></path><path d="M1408.06 685.14L1583.27 494.48" stroke="rgba(19, 46, 101, 0.1)" stroke-width="1.5"></path><path d="M1550.18 -100.86L1550.18 -100.86" stroke="rgba(19, 46, 101, 0.1)" stroke-width="1.5"></path><path d="M1550.18 -100.86L1438.84 48.31" stroke="rgba(19, 46, 101, 0.1)" stroke-width="1.5"></path><path d="M1550.18 -100.86L1569.44 107.55" stroke="rgba(19, 46, 101, 0.1)" stroke-width="1.5"></path><path d="M1550.18 -100.86L1243.98 -64.07" stroke="rgba(19, 46, 101, 0.1)" stroke-width="1.5"></path><path d="M1550.18 -100.86L1564.95 225.31" stroke="rgba(19, 46, 101, 0.1)" stroke-width="1.5"></path><path d="M1569.44 107.55L1569.44 107.55" stroke="rgba(19, 46, 101, 0.1)" stroke-width="1.5"></path><path d="M1569.44 107.55L1564.95 225.31" stroke="rgba(19, 46, 101, 0.1)" stroke-width="1.5"></path><path d="M1564.95 225.31L1564.95 225.31" stroke="rgba(19, 46, 101, 0.1)" stroke-width="1.5"></path><path d="M1564.95 225.31L1549.27 390.07" stroke="rgba(19, 46, 101, 0.1)" stroke-width="1.5"></path><path d="M1564.95 225.31L1436.79 398.78" stroke="rgba(19, 46, 101, 0.1)" stroke-width="1.5"></path><path d="M1564.95 225.31L1438.84 48.31" stroke="rgba(19, 46, 101, 0.1)" stroke-width="1.5"></path><path d="M1549.27 390.07L1549.27 390.07" stroke="rgba(19, 46, 101, 0.1)" stroke-width="1.5"></path><path d="M1549.27 390.07L1583.27 494.48" stroke="rgba(19, 46, 101, 0.1)" stroke-width="1.5"></path><path d="M1549.27 390.07L1412.18 207.51" stroke="rgba(19, 46, 101, 0.1)" stroke-width="1.5"></path><path d="M1549.27 390.07L1389.21 561.2" stroke="rgba(19, 46, 101, 0.1)" stroke-width="1.5"></path><path d="M1549.27 390.07L1283.31 381.06" stroke="rgba(19, 46, 101, 0.1)" stroke-width="1.5"></path><path d="M1583.27 494.48L1583.27 494.48" stroke="rgba(19, 46, 101, 0.1)" stroke-width="1.5"></path><path d="M1583.27 494.48L1612.24 649.3" stroke="rgba(19, 46, 101, 0.1)" stroke-width="1.5"></path><path d="M1612.24 649.3L1612.24 649.3" stroke="rgba(19, 46, 101, 0.1)" stroke-width="1.5"></path><circle r="5" cx="-95.86" cy="349.28" fill="rgba(19, 46, 101, 0.1)"></circle><circle r="5" cx="-42.72" cy="489.09" fill="rgba(19, 46, 101, 0.1)"></circle><circle r="5" cx="-72.76" cy="646.12" fill="rgba(19, 46, 101, 0.1)"></circle><circle r="5" cx="70.47" cy="364.4" fill="rgba(19, 46, 101, 0.1)"></circle><circle r="5" cx="92.13" cy="557.69" fill="rgba(19, 46, 101, 0.1)"></circle><circle r="5" cx="74.36" cy="643.26" fill="rgba(19, 46, 101, 0.1)"></circle><circle r="5" cx="224.17" cy="377.28" fill="rgba(19, 46, 101, 0.1)"></circle><circle r="5" cx="254.07" cy="501.79" fill="rgba(19, 46, 101, 0.1)"></circle><circle r="5" cx="210.31" cy="697.62" fill="rgba(19, 46, 101, 0.1)"></circle><circle r="5" cx="392.76" cy="379.39" fill="rgba(19, 46, 101, 0.1)"></circle><circle r="5" cx="530.53" cy="348.82" fill="rgba(19, 46, 101, 0.1)"></circle><circle r="5" cx="502.09" cy="676.04" fill="rgba(19, 46, 101, 0.1)"></circle><circle r="5" cx="651.88" cy="233.88" fill="rgba(19, 46, 101, 0.1)"></circle><circle r="5" cx="645.98" cy="381.85" fill="rgba(19, 46, 101, 0.1)"></circle><circle r="5" cx="667.91" cy="492.89" fill="rgba(19, 46, 101, 0.1)"></circle><circle r="5" cx="711.14" cy="712.36" fill="rgba(19, 46, 101, 0.1)"></circle><circle r="5" cx="835.44" cy="90.8" fill="rgba(19, 46, 101, 0.1)"></circle><circle r="5" cx="813" cy="189.78" fill="rgba(19, 46, 101, 0.1)"></circle><circle r="5" cx="836.52" cy="350.21" fill="rgba(19, 46, 101, 0.1)"></circle><circle r="5" cx="817.29" cy="534.71" fill="rgba(19, 46, 101, 0.1)"></circle><circle r="5" cx="817.96" cy="702.51" fill="rgba(19, 46, 101, 0.1)"></circle><circle r="5" cx="986.81" cy="-65.27" fill="rgba(19, 46, 101, 0.1)"></circle><circle r="5" cx="939.77" cy="58.39" fill="rgba(19, 46, 101, 0.1)"></circle><circle r="5" cx="986.44" cy="214.48" fill="rgba(19, 46, 101, 0.1)"></circle><circle r="5" cx="970.04" cy="350.3" fill="rgba(19, 46, 101, 0.1)"></circle><circle r="5" cx="998.6" cy="513.47" fill="rgba(19, 46, 101, 0.1)"></circle><circle r="5" cx="947.54" cy="654.69" fill="rgba(19, 46, 101, 0.1)"></circle><circle r="5" cx="1147.87" cy="-92.41" fill="rgba(19, 46, 101, 0.1)"></circle><circle r="5" cx="1142.26" cy="53.51" fill="rgba(19, 46, 101, 0.1)"></circle><circle r="5" cx="1101.87" cy="241.56" fill="rgba(19, 46, 101, 0.1)"></circle><circle r="5" cx="1114.16" cy="372.84" fill="rgba(19, 46, 101, 0.1)"></circle><circle r="5" cx="1128.88" cy="675.95" fill="rgba(19, 46, 101, 0.1)"></circle><circle r="5" cx="1243.98" cy="-64.07" fill="rgba(19, 46, 101, 0.1)"></circle><circle r="5" cx="1249.24" cy="86.54" fill="rgba(19, 46, 101, 0.1)"></circle><circle r="5" cx="1264.21" cy="221.76" fill="rgba(19, 46, 101, 0.1)"></circle><circle r="5" cx="1283.31" cy="381.06" fill="rgba(19, 46, 101, 0.1)"></circle><circle r="5" cx="1241.88" cy="496.95" fill="rgba(19, 46, 101, 0.1)"></circle><circle r="5" cx="1243.86" cy="651.84" fill="rgba(19, 46, 101, 0.1)"></circle><circle r="5" cx="1455.72" cy="-108.52" fill="rgba(19, 46, 101, 0.1)"></circle><circle r="5" cx="1438.84" cy="48.31" fill="rgba(19, 46, 101, 0.1)"></circle><circle r="5" cx="1412.18" cy="207.51" fill="rgba(19, 46, 101, 0.1)"></circle><circle r="5" cx="1436.79" cy="398.78" fill="rgba(19, 46, 101, 0.1)"></circle><circle r="5" cx="1389.21" cy="561.2" fill="rgba(19, 46, 101, 0.1)"></circle><circle r="5" cx="1408.06" cy="685.14" fill="rgba(19, 46, 101, 0.1)"></circle><circle r="5" cx="1550.18" cy="-100.86" fill="rgba(19, 46, 101, 0.1)"></circle><circle r="5" cx="1569.44" cy="107.55" fill="rgba(19, 46, 101, 0.1)"></circle><circle r="5" cx="1564.95" cy="225.31" fill="rgba(19, 46, 101, 0.1)"></circle><circle r="5" cx="1549.27" cy="390.07" fill="rgba(19, 46, 101, 0.1)"></circle><circle r="5" cx="1583.27" cy="494.48" fill="rgba(19, 46, 101, 0.1)"></circle><circle r="5" cx="1612.24" cy="649.3" fill="rgba(19, 46, 101, 0.1)"></circle><path d="M102.43 682.3L102.43 682.3" stroke="hsl(228.5, 77.2%, 51.5%)" stroke-width="1.5"></path><path d="M102.43 682.3L205.76 706.3" stroke="hsl(228.5, 77.2%, 51.5%)" stroke-width="1.5"></path><path d="M102.43 682.3L43.34 538.92" stroke="hsl(228.5, 77.2%, 51.5%)" stroke-width="1.5"></path><path d="M535.13 687.72L535.13 687.72" stroke="hsl(228.5, 77.2%, 51.5%)" stroke-width="1.5"></path><path d="M535.13 687.72L638.08 653.67" stroke="hsl(228.5, 77.2%, 51.5%)" stroke-width="1.5"></path><path d="M535.13 687.72L405.86 643.61" stroke="hsl(228.5, 77.2%, 51.5%)" stroke-width="1.5"></path><path d="M535.13 687.72L506.45 533.32" stroke="hsl(228.5, 77.2%, 51.5%)" stroke-width="1.5"></path><path d="M535.13 687.72L649.21 522.34" stroke="hsl(228.5, 77.2%, 51.5%)" stroke-width="1.5"></path><path d="M535.13 687.72L346.47 520.99" stroke="hsl(228.5, 77.2%, 51.5%)" stroke-width="1.5"></path><path d="M649.21 522.34L649.21 522.34" stroke="hsl(228.5, 77.2%, 51.5%)" stroke-width="1.5"></path><path d="M649.21 522.34L638.08 653.67" stroke="hsl(228.5, 77.2%, 51.5%)" stroke-width="1.5"></path><path d="M649.21 522.34L506.45 533.32" stroke="hsl(228.5, 77.2%, 51.5%)" stroke-width="1.5"></path><path d="M649.21 522.34L845.37 552.19" stroke="hsl(228.5, 77.2%, 51.5%)" stroke-width="1.5"></path><path d="M1301.18 104.34L1301.18 104.34" stroke="hsl(228.5, 77.2%, 51.5%)" stroke-width="1.5"></path><path d="M1301.18 104.34L1284.23 208.4" stroke="hsl(228.5, 77.2%, 51.5%)" stroke-width="1.5"></path><path d="M1301.18 104.34L1414.11 62.35" stroke="hsl(228.5, 77.2%, 51.5%)" stroke-width="1.5"></path><path d="M1301.18 104.34L1431.42 187.51" stroke="hsl(228.5, 77.2%, 51.5%)" stroke-width="1.5"></path><path d="M1301.18 104.34L1274.92 -54.66" stroke="hsl(228.5, 77.2%, 51.5%)" stroke-width="1.5"></path><path d="M1301.18 104.34L1122.5 206.05" stroke="hsl(228.5, 77.2%, 51.5%)" stroke-width="1.5"></path><path d="M1280.64 505.35L1280.64 505.35" stroke="hsl(228.5, 77.2%, 51.5%)" stroke-width="1.5"></path><path d="M1280.64 505.35L1265.06 405.26" stroke="hsl(228.5, 77.2%, 51.5%)" stroke-width="1.5"></path><path d="M1280.64 505.35L1154.4 511.98" stroke="hsl(228.5, 77.2%, 51.5%)" stroke-width="1.5"></path><path d="M1280.64 505.35L1428.14 529.7" stroke="hsl(228.5, 77.2%, 51.5%)" stroke-width="1.5"></path><path d="M1280.64 505.35L1281.82 657.58" stroke="hsl(228.5, 77.2%, 51.5%)" stroke-width="1.5"></path><path d="M1280.64 505.35L1151.76 390.7" stroke="hsl(228.5, 77.2%, 51.5%)" stroke-width="1.5"></path><path d="M1588 209.23L1588 209.23" stroke="hsl(228.5, 77.2%, 51.5%)" stroke-width="1.5"></path><path d="M1588 209.23L1431.42 187.51" stroke="hsl(228.5, 77.2%, 51.5%)" stroke-width="1.5"></path><path d="M1588 209.23L1537.69 39.34" stroke="hsl(228.5, 77.2%, 51.5%)" stroke-width="1.5"></path><path d="M1588 209.23L1610.8 398.52" stroke="hsl(228.5, 77.2%, 51.5%)" stroke-width="1.5"></path><path d="M-72.04 506.26L-72.04 506.26" stroke="hsl(228.5, 77.2%, 51.5%)" stroke-width="1.5"></path><path d="M-72.04 506.26L43.34 538.92" stroke="hsl(228.5, 77.2%, 51.5%)" stroke-width="1.5"></path><path d="M-72.04 506.26L-58.88 650.99" stroke="hsl(228.5, 77.2%, 51.5%)" stroke-width="1.5"></path><path d="M-72.04 506.26L102.43 682.3" stroke="hsl(228.5, 77.2%, 51.5%)" stroke-width="1.5"></path><path d="M-72.04 506.26L223 531.93" stroke="hsl(228.5, 77.2%, 51.5%)" stroke-width="1.5"></path><path d="M-58.88 650.99L-58.88 650.99" stroke="hsl(228.5, 77.2%, 51.5%)" stroke-width="1.5"></path><path d="M-58.88 650.99L43.34 538.92" stroke="hsl(228.5, 77.2%, 51.5%)" stroke-width="1.5"></path><path d="M-58.88 650.99L102.43 682.3" stroke="hsl(228.5, 77.2%, 51.5%)" stroke-width="1.5"></path><path d="M43.34 538.92L43.34 538.92" stroke="hsl(228.5, 77.2%, 51.5%)" stroke-width="1.5"></path><path d="M43.34 538.92L223 531.93" stroke="hsl(228.5, 77.2%, 51.5%)" stroke-width="1.5"></path><path d="M223 531.93L223 531.93" stroke="hsl(228.5, 77.2%, 51.5%)" stroke-width="1.5"></path><path d="M223 531.93L346.47 520.99" stroke="hsl(228.5, 77.2%, 51.5%)" stroke-width="1.5"></path><path d="M223 531.93L205.76 706.3" stroke="hsl(228.5, 77.2%, 51.5%)" stroke-width="1.5"></path><path d="M223 531.93L102.43 682.3" stroke="hsl(228.5, 77.2%, 51.5%)" stroke-width="1.5"></path><path d="M223 531.93L405.86 643.61" stroke="hsl(228.5, 77.2%, 51.5%)" stroke-width="1.5"></path><path d="M205.76 706.3L205.76 706.3" stroke="hsl(228.5, 77.2%, 51.5%)" stroke-width="1.5"></path><path d="M205.76 706.3L405.86 643.61" stroke="hsl(228.5, 77.2%, 51.5%)" stroke-width="1.5"></path><path d="M205.76 706.3L346.47 520.99" stroke="hsl(228.5, 77.2%, 51.5%)" stroke-width="1.5"></path><path d="M205.76 706.3L43.34 538.92" stroke="hsl(228.5, 77.2%, 51.5%)" stroke-width="1.5"></path><path d="M346.47 520.99L346.47 520.99" stroke="hsl(228.5, 77.2%, 51.5%)" stroke-width="1.5"></path><path d="M346.47 520.99L405.86 643.61" stroke="hsl(228.5, 77.2%, 51.5%)" stroke-width="1.5"></path><path d="M346.47 520.99L506.45 533.32" stroke="hsl(228.5, 77.2%, 51.5%)" stroke-width="1.5"></path><path d="M405.86 643.61L405.86 643.61" stroke="hsl(228.5, 77.2%, 51.5%)" stroke-width="1.5"></path><path d="M405.86 643.61L506.45 533.32" stroke="hsl(228.5, 77.2%, 51.5%)" stroke-width="1.5"></path><path d="M506.45 533.32L506.45 533.32" stroke="hsl(228.5, 77.2%, 51.5%)" stroke-width="1.5"></path><path d="M638.08 653.67L638.08 653.67" stroke="hsl(228.5, 77.2%, 51.5%)" stroke-width="1.5"></path><path d="M811.59 405.56L811.59 405.56" stroke="hsl(228.5, 77.2%, 51.5%)" stroke-width="1.5"></path><path d="M811.59 405.56L845.37 552.19" stroke="hsl(228.5, 77.2%, 51.5%)" stroke-width="1.5"></path><path d="M811.59 405.56L956.76 508.82" stroke="hsl(228.5, 77.2%, 51.5%)" stroke-width="1.5"></path><path d="M811.59 405.56L649.21 522.34" stroke="hsl(228.5, 77.2%, 51.5%)" stroke-width="1.5"></path><path d="M845.37 552.19L845.37 552.19" stroke="hsl(228.5, 77.2%, 51.5%)" stroke-width="1.5"></path><path d="M845.37 552.19L956.76 508.82" stroke="hsl(228.5, 77.2%, 51.5%)" stroke-width="1.5"></path><path d="M845.37 552.19L861.88 698.33" stroke="hsl(228.5, 77.2%, 51.5%)" stroke-width="1.5"></path><path d="M861.88 698.33L861.88 698.33" stroke="hsl(228.5, 77.2%, 51.5%)" stroke-width="1.5"></path><path d="M861.88 698.33L964.3 656.85" stroke="hsl(228.5, 77.2%, 51.5%)" stroke-width="1.5"></path><path d="M861.88 698.33L956.76 508.82" stroke="hsl(228.5, 77.2%, 51.5%)" stroke-width="1.5"></path><path d="M861.88 698.33L638.08 653.67" stroke="hsl(228.5, 77.2%, 51.5%)" stroke-width="1.5"></path><path d="M956.76 508.82L956.76 508.82" stroke="hsl(228.5, 77.2%, 51.5%)" stroke-width="1.5"></path><path d="M956.76 508.82L964.3 656.85" stroke="hsl(228.5, 77.2%, 51.5%)" stroke-width="1.5"></path><path d="M956.76 508.82L1154.4 511.98" stroke="hsl(228.5, 77.2%, 51.5%)" stroke-width="1.5"></path><path d="M964.3 656.85L964.3 656.85" stroke="hsl(228.5, 77.2%, 51.5%)" stroke-width="1.5"></path><path d="M1122.5 206.05L1122.5 206.05" stroke="hsl(228.5, 77.2%, 51.5%)" stroke-width="1.5"></path><path d="M1122.5 206.05L1284.23 208.4" stroke="hsl(228.5, 77.2%, 51.5%)" stroke-width="1.5"></path><path d="M1122.5 206.05L1151.76 390.7" stroke="hsl(228.5, 77.2%, 51.5%)" stroke-width="1.5"></path><path d="M1151.76 390.7L1151.76 390.7" stroke="hsl(228.5, 77.2%, 51.5%)" stroke-width="1.5"></path><path d="M1151.76 390.7L1265.06 405.26" stroke="hsl(228.5, 77.2%, 51.5%)" stroke-width="1.5"></path><path d="M1151.76 390.7L1154.4 511.98" stroke="hsl(228.5, 77.2%, 51.5%)" stroke-width="1.5"></path><path d="M1154.4 511.98L1154.4 511.98" stroke="hsl(228.5, 77.2%, 51.5%)" stroke-width="1.5"></path><path d="M1154.4 511.98L1265.06 405.26" stroke="hsl(228.5, 77.2%, 51.5%)" stroke-width="1.5"></path><path d="M1154.4 511.98L1281.82 657.58" stroke="hsl(228.5, 77.2%, 51.5%)" stroke-width="1.5"></path><path d="M1154.4 511.98L964.3 656.85" stroke="hsl(228.5, 77.2%, 51.5%)" stroke-width="1.5"></path><path d="M1274.92 -54.66L1274.92 -54.66" stroke="hsl(228.5, 77.2%, 51.5%)" stroke-width="1.5"></path><path d="M1284.23 208.4L1284.23 208.4" stroke="hsl(228.5, 77.2%, 51.5%)" stroke-width="1.5"></path><path d="M1284.23 208.4L1431.42 187.51" stroke="hsl(228.5, 77.2%, 51.5%)" stroke-width="1.5"></path><path d="M1284.23 208.4L1414.11 62.35" stroke="hsl(228.5, 77.2%, 51.5%)" stroke-width="1.5"></path><path d="M1284.23 208.4L1265.06 405.26" stroke="hsl(228.5, 77.2%, 51.5%)" stroke-width="1.5"></path><path d="M1265.06 405.26L1265.06 405.26" stroke="hsl(228.5, 77.2%, 51.5%)" stroke-width="1.5"></path><path d="M1265.06 405.26L1437.83 395.74" stroke="hsl(228.5, 77.2%, 51.5%)" stroke-width="1.5"></path><path d="M1281.82 657.58L1281.82 657.58" stroke="hsl(228.5, 77.2%, 51.5%)" stroke-width="1.5"></path><path d="M1281.82 657.58L1435.58 709.47" stroke="hsl(228.5, 77.2%, 51.5%)" stroke-width="1.5"></path><path d="M1281.82 657.58L1428.14 529.7" stroke="hsl(228.5, 77.2%, 51.5%)" stroke-width="1.5"></path><path d="M1452.52 -39.18L1452.52 -39.18" stroke="hsl(228.5, 77.2%, 51.5%)" stroke-width="1.5"></path><path d="M1452.52 -39.18L1414.11 62.35" stroke="hsl(228.5, 77.2%, 51.5%)" stroke-width="1.5"></path><path d="M1452.52 -39.18L1537.69 39.34" stroke="hsl(228.5, 77.2%, 51.5%)" stroke-width="1.5"></path><path d="M1452.52 -39.18L1581.31 -82.75" stroke="hsl(228.5, 77.2%, 51.5%)" stroke-width="1.5"></path><path d="M1414.11 62.35L1414.11 62.35" stroke="hsl(228.5, 77.2%, 51.5%)" stroke-width="1.5"></path><path d="M1414.11 62.35L1537.69 39.34" stroke="hsl(228.5, 77.2%, 51.5%)" stroke-width="1.5"></path><path d="M1414.11 62.35L1431.42 187.51" stroke="hsl(228.5, 77.2%, 51.5%)" stroke-width="1.5"></path><path d="M1431.42 187.51L1431.42 187.51" stroke="hsl(228.5, 77.2%, 51.5%)" stroke-width="1.5"></path><path d="M1431.42 187.51L1537.69 39.34" stroke="hsl(228.5, 77.2%, 51.5%)" stroke-width="1.5"></path><path d="M1431.42 187.51L1437.83 395.74" stroke="hsl(228.5, 77.2%, 51.5%)" stroke-width="1.5"></path><path d="M1437.83 395.74L1437.83 395.74" stroke="hsl(228.5, 77.2%, 51.5%)" stroke-width="1.5"></path><path d="M1437.83 395.74L1428.14 529.7" stroke="hsl(228.5, 77.2%, 51.5%)" stroke-width="1.5"></path><path d="M1437.83 395.74L1574.02 497.68" stroke="hsl(228.5, 77.2%, 51.5%)" stroke-width="1.5"></path><path d="M1428.14 529.7L1428.14 529.7" stroke="hsl(228.5, 77.2%, 51.5%)" stroke-width="1.5"></path><path d="M1428.14 529.7L1574.02 497.68" stroke="hsl(228.5, 77.2%, 51.5%)" stroke-width="1.5"></path><path d="M1428.14 529.7L1435.58 709.47" stroke="hsl(228.5, 77.2%, 51.5%)" stroke-width="1.5"></path><path d="M1435.58 709.47L1435.58 709.47" stroke="hsl(228.5, 77.2%, 51.5%)" stroke-width="1.5"></path><path d="M1435.58 709.47L1561.36 693.11" stroke="hsl(228.5, 77.2%, 51.5%)" stroke-width="1.5"></path><path d="M1581.31 -82.75L1581.31 -82.75" stroke="hsl(228.5, 77.2%, 51.5%)" stroke-width="1.5"></path><path d="M1581.31 -82.75L1537.69 39.34" stroke="hsl(228.5, 77.2%, 51.5%)" stroke-width="1.5"></path><path d="M1537.69 39.34L1537.69 39.34" stroke="hsl(228.5, 77.2%, 51.5%)" stroke-width="1.5"></path><path d="M1537.69 39.34L1301.18 104.34" stroke="hsl(228.5, 77.2%, 51.5%)" stroke-width="1.5"></path><path d="M1610.8 398.52L1610.8 398.52" stroke="hsl(228.5, 77.2%, 51.5%)" stroke-width="1.5"></path><path d="M1610.8 398.52L1574.02 497.68" stroke="hsl(228.5, 77.2%, 51.5%)" stroke-width="1.5"></path><path d="M1610.8 398.52L1437.83 395.74" stroke="hsl(228.5, 77.2%, 51.5%)" stroke-width="1.5"></path><path d="M1610.8 398.52L1428.14 529.7" stroke="hsl(228.5, 77.2%, 51.5%)" stroke-width="1.5"></path><path d="M1610.8 398.52L1431.42 187.51" stroke="hsl(228.5, 77.2%, 51.5%)" stroke-width="1.5"></path><path d="M1574.02 497.68L1574.02 497.68" stroke="hsl(228.5, 77.2%, 51.5%)" stroke-width="1.5"></path><path d="M1561.36 693.11L1561.36 693.11" stroke="hsl(228.5, 77.2%, 51.5%)" stroke-width="1.5"></path><path d="M1561.36 693.11L1574.02 497.68" stroke="hsl(228.5, 77.2%, 51.5%)" stroke-width="1.5"></path><path d="M1561.36 693.11L1428.14 529.7" stroke="hsl(228.5, 77.2%, 51.5%)" stroke-width="1.5"></path><path d="M1561.36 693.11L1281.82 657.58" stroke="hsl(228.5, 77.2%, 51.5%)" stroke-width="1.5"></path><circle r="25" cx="102.43" cy="682.3" fill="url(&quot;#SvgjsRadialGradient1015&quot;)"></circle><circle r="25" cx="535.13" cy="687.72" fill="url(&quot;#SvgjsRadialGradient1015&quot;)"></circle><circle r="25" cx="649.21" cy="522.34" fill="url(&quot;#SvgjsRadialGradient1015&quot;)"></circle><circle r="25" cx="1301.18" cy="104.34" fill="url(&quot;#SvgjsRadialGradient1015&quot;)"></circle><circle r="25" cx="1280.64" cy="505.35" fill="url(&quot;#SvgjsRadialGradient1015&quot;)"></circle><circle r="25" cx="1588" cy="209.23" fill="url(&quot;#SvgjsRadialGradient1015&quot;)"></circle><circle r="5" cx="-72.04" cy="506.26" fill="#8b9ad9"></circle><circle r="5" cx="-58.88" cy="650.99" fill="#8b9ad9"></circle><circle r="5" cx="43.34" cy="538.92" fill="#8b9ad9"></circle><circle r="5" cx="223" cy="531.93" fill="#8b9ad9"></circle><circle r="5" cx="205.76" cy="706.3" fill="#8b9ad9"></circle><circle r="5" cx="346.47" cy="520.99" fill="#8b9ad9"></circle><circle r="5" cx="405.86" cy="643.61" fill="#8b9ad9"></circle><circle r="5" cx="506.45" cy="533.32" fill="#8b9ad9"></circle><circle r="5" cx="638.08" cy="653.67" fill="#8b9ad9"></circle><circle r="5" cx="811.59" cy="405.56" fill="#8b9ad9"></circle><circle r="5" cx="845.37" cy="552.19" fill="#8b9ad9"></circle><circle r="5" cx="861.88" cy="698.33" fill="#8b9ad9"></circle><circle r="5" cx="956.76" cy="508.82" fill="#8b9ad9"></circle><circle r="5" cx="964.3" cy="656.85" fill="#8b9ad9"></circle><circle r="5" cx="1122.5" cy="206.05" fill="#8b9ad9"></circle><circle r="5" cx="1151.76" cy="390.7" fill="#8b9ad9"></circle><circle r="5" cx="1154.4" cy="511.98" fill="#8b9ad9"></circle><circle r="5" cx="1274.92" cy="-54.66" fill="#8b9ad9"></circle><circle r="5" cx="1284.23" cy="208.4" fill="#8b9ad9"></circle><circle r="5" cx="1265.06" cy="405.26" fill="#8b9ad9"></circle><circle r="5" cx="1281.82" cy="657.58" fill="#8b9ad9"></circle><circle r="5" cx="1452.52" cy="-39.18" fill="#8b9ad9"></circle><circle r="5" cx="1414.11" cy="62.35" fill="#8b9ad9"></circle><circle r="5" cx="1431.42" cy="187.51" fill="#8b9ad9"></circle><circle r="5" cx="1437.83" cy="395.74" fill="#8b9ad9"></circle><circle r="5" cx="1428.14" cy="529.7" fill="#8b9ad9"></circle><circle r="5" cx="1435.58" cy="709.47" fill="#8b9ad9"></circle><circle r="5" cx="1581.31" cy="-82.75" fill="#8b9ad9"></circle><circle r="5" cx="1537.69" cy="39.34" fill="#8b9ad9"></circle><circle r="5" cx="1610.8" cy="398.52" fill="#8b9ad9"></circle><circle r="5" cx="1574.02" cy="497.68" fill="#8b9ad9"></circle><circle r="5" cx="1561.36" cy="693.11" fill="#8b9ad9"></circle></g><defs><mask id="SvgjsMask1014"><rect width="1440" height="560" fill="#ffffff"></rect></mask><radialGradient id="SvgjsRadialGradient1015"><stop stop-color="#ffffff" offset="0.1"></stop><stop stop-color="rgba(23, 53, 179, 1)" offset="0.2"></stop><stop stop-color="rgba(23, 53, 179, 0)" offset="1"></stop></radialGradient></defs></svg>